<?xml version="1.0" encoding="UTF-8" standalone="no"?>
<svg width="240px" height="240px" viewBox="0 0 240 240" version="1.1" xmlns="http://www.w3.org/2000/svg" xmlns:xlink="http://www.w3.org/1999/xlink">
    <!-- Generator: Sketch 39.1 (31720) - http://www.bohemiancoding.com/sketch -->
    <title>Artboard Copy</title>
    <desc>Created with Sketch.</desc>
    <defs></defs>
    <g id="Page-1" stroke="none" stroke-width="1" fill="none" fill-rule="evenodd">
        <g id="Artboard-Copy" fill="#808080">
            <g id="Pill-Copy" transform="translate(43.000000, 69.000000)">
                <path d="M77.5,69 C120.302068,69 155,53.5538239 155,34.5 C155,15.4461761 120.302068,0 77.5,0 C34.6979319,0 0,15.4461761 0,34.5 C0,53.5538239 34.6979319,69 77.5,69 Z M77.5,64 C116.98836,64 149,50.3446849 149,33.5 C149,16.6553151 116.98836,3 77.5,3 C38.0116404,3 6,16.6553151 6,33.5 C6,50.3446849 38.0116404,64 77.5,64 Z" id="Combined-Shape"></path>
                <path d="M150,40.7679932 C153.406822,37.3477187 155,35 155,35 C155,35 155,64.7579205 155,66.7672414 C155,86.2257567 120.302068,102 77.5,102 C34.6979319,102 0,86.2257567 0,66.7672414 L0,35 C0,35 2.04021804,38.4882482 7,43.1557708 L7,40 C7,40 23.2066667,64.6551724 76.1166667,66.0775862 C129.026667,67.5 150,40 150,40 C150,40 150,40.2747693 150,40.7679932 Z M150,40.7679932 C140.537704,50.2676541 117.08449,68.0412895 74.9166667,66.7672414 C37.1112778,65.6249988 16.5937691,52.1842187 7,43.1557708 L7,66.0775862 C7,82.0509943 39.0116404,95 78.5,95 C117.98836,95 150,82.0509943 150,66.0775862 C150,64.6030784 150,44.9253294 150,40.7679932 Z" id="Combined-Shape"></path>
                <polygon id="Path-2" points="106 62 114.5 59.5 46 5 38 7.5"></polygon>
            </g>
        </g>
    </g>
</svg>